<?xml version="1.0" encoding="UTF-8" standalone="no"?><svg xmlns="http://www.w3.org/2000/svg" xmlns:xlink="http://www.w3.org/1999/xlink" contentStyleType="text/css" height="227px" preserveAspectRatio="none" style="width:135px;height:227px;background:#FFFFFF;" version="1.1" viewBox="0 0 135 227" width="135px" zoomAndPan="magnify"><defs/><g><rect fill="#F1F1F1" height="36.3441" rx="12.5" ry="12.5" style="stroke:#181818;stroke-width:0.5;" width="96" x="19.5" y="11"/><text fill="#000000" font-family="sans-serif" font-size="12" lengthAdjust="spacing" textLength="76" x="29.5" y="33.8281">Inserir cartão</text><rect fill="#F1F1F1" height="36.3441" rx="12.5" ry="12.5" style="stroke:#181818;stroke-width:0.5;" width="113" x="11" y="67.3441"/><text fill="#000000" font-family="sans-serif" font-size="12" lengthAdjust="spacing" textLength="93" x="21" y="90.1722">Requisitar senha</text><rect fill="#F1F1F1" height="36.3441" rx="12.5" ry="12.5" style="stroke:#181818;stroke-width:0.5;" width="96" x="19.5" y="123.6882"/><text fill="#000000" font-family="sans-serif" font-size="12" lengthAdjust="spacing" textLength="76" x="29.5" y="146.5163">Validar senha</text><rect fill="#F1F1F1" height="36.3441" rx="12.5" ry="12.5" style="stroke:#181818;stroke-width:0.5;" width="102" x="16.5" y="180.0323"/><text fill="#000000" font-family="sans-serif" font-size="12" lengthAdjust="spacing" textLength="82" x="26.5" y="202.8604">Realizar saque</text><line style="stroke:#181818;stroke-width:1.0;" x1="67.5" x2="67.5" y1="47.3441" y2="67.3441"/><polygon fill="#181818" points="63.5,57.3441,67.5,67.3441,71.5,57.3441,67.5,61.3441" style="stroke:#181818;stroke-width:1.0;"/><line style="stroke:#181818;stroke-width:1.0;" x1="67.5" x2="67.5" y1="103.6882" y2="123.6882"/><polygon fill="#181818" points="63.5,113.6882,67.5,123.6882,71.5,113.6882,67.5,117.6882" style="stroke:#181818;stroke-width:1.0;"/><line style="stroke:#181818;stroke-width:1.0;" x1="67.5" x2="67.5" y1="160.0323" y2="180.0323"/><polygon fill="#181818" points="63.5,170.0323,67.5,180.0323,71.5,170.0323,67.5,174.0323" style="stroke:#181818;stroke-width:1.0;"/><!--MD5=[4dc84e757371294c7039c16398795b84]
@startuml Atividades
:Inserir cartão;
:Requisitar senha;
:Validar senha;
:Realizar saque;
@enduml

PlantUML version 1.2022.6(Tue Jun 21 14:34:49 BRT 2022)
(GPL source distribution)
Java Runtime: OpenJDK Runtime Environment
JVM: OpenJDK 64-Bit Server VM
Default Encoding: UTF-8
Language: en
Country: US
--></g></svg>