<?xml version="1.0" encoding="UTF-8" standalone="no"?><svg xmlns="http://www.w3.org/2000/svg" xmlns:xlink="http://www.w3.org/1999/xlink" contentStyleType="text/css" height="189px" preserveAspectRatio="none" style="width:414px;height:189px;background:#FFFFFF;" version="1.1" viewBox="0 0 414 189" width="414px" zoomAndPan="magnify"><defs/><g><!--MD5=[35d938084ae5f6069e79016d06e14058]
class Carro--><g id="elem_Carro"><rect codeLine="6" fill="#F1F1F1" height="48" id="Carro" rx="2.5" ry="2.5" style="stroke:#181818;stroke-width:0.5;" width="69" x="186.5" y="7"/><ellipse cx="201.5" cy="23" fill="#ADD1B2" rx="11" ry="11" style="stroke:#181818;stroke-width:1.0;"/><path d="M200.9688,29.9219 Q199.2188,29.9219 198.0781,29.1875 Q196.9531,28.4375 196.3906,27.0938 Q195.8438,25.7344 195.8438,23.9375 Q195.8438,21.9063 196.5,20.4531 Q197.1563,19 198.4375,18.2188 Q199.7188,17.4375 201.5938,17.4375 Q202.4844,17.4375 203.1563,17.625 Q203.8281,17.7969 204.5156,18.1406 L203.7031,20.1563 Q203.0781,19.8438 202.5313,19.7188 Q202,19.5938 201.5156,19.5938 Q200.3438,19.5938 199.6406,20.125 Q198.9375,20.6563 198.6406,21.6094 Q198.3438,22.5625 198.3438,23.8281 Q198.3438,25.8438 199.0625,26.8125 Q199.7813,27.7656 201.375,27.7656 Q201.9688,27.7656 202.5938,27.6094 Q203.2188,27.4531 204.0469,27.0781 L204.0469,29.2969 Q203.3125,29.6094 202.5156,29.7656 Q201.7344,29.9219 200.9688,29.9219 Z " fill="#000000"/><text fill="#000000" font-family="sans-serif" font-size="14" lengthAdjust="spacing" textLength="37" x="215.5" y="28.432">Carro</text><line style="stroke:#181818;stroke-width:0.5;" x1="187.5" x2="254.5" y1="39" y2="39"/><line style="stroke:#181818;stroke-width:0.5;" x1="187.5" x2="254.5" y1="47" y2="47"/></g><!--MD5=[b93cc77a921693b14dc8d458900415a6]
class Motorista--><g id="elem_Motorista"><rect fill="#F1F1F1" height="48" id="Motorista" rx="2.5" ry="2.5" style="stroke:#181818;stroke-width:0.5;" width="96" x="7" y="7"/><ellipse cx="22" cy="23" fill="#ADD1B2" rx="11" ry="11" style="stroke:#181818;stroke-width:1.0;"/><path d="M21.4688,29.9219 Q19.7188,29.9219 18.5781,29.1875 Q17.4531,28.4375 16.8906,27.0938 Q16.3438,25.7344 16.3438,23.9375 Q16.3438,21.9063 17,20.4531 Q17.6563,19 18.9375,18.2188 Q20.2188,17.4375 22.0938,17.4375 Q22.9844,17.4375 23.6563,17.625 Q24.3281,17.7969 25.0156,18.1406 L24.2031,20.1563 Q23.5781,19.8438 23.0313,19.7188 Q22.5,19.5938 22.0156,19.5938 Q20.8438,19.5938 20.1406,20.125 Q19.4375,20.6563 19.1406,21.6094 Q18.8438,22.5625 18.8438,23.8281 Q18.8438,25.8438 19.5625,26.8125 Q20.2813,27.7656 21.875,27.7656 Q22.4688,27.7656 23.0938,27.6094 Q23.7188,27.4531 24.5469,27.0781 L24.5469,29.2969 Q23.8125,29.6094 23.0156,29.7656 Q22.2344,29.9219 21.4688,29.9219 Z " fill="#000000"/><text fill="#000000" font-family="sans-serif" font-size="14" lengthAdjust="spacing" textLength="64" x="36" y="28.432">Motorista</text><line style="stroke:#181818;stroke-width:0.5;" x1="8" x2="102" y1="39" y2="39"/><line style="stroke:#181818;stroke-width:0.5;" x1="8" x2="102" y1="47" y2="47"/></g><!--MD5=[826cf4cec60d24879ede4ab7fda9d387]
class Roda--><g id="elem_Roda"><rect fill="#F1F1F1" height="48" id="Roda" rx="2.5" ry="2.5" style="stroke:#181818;stroke-width:0.5;" width="66" x="341" y="7"/><ellipse cx="356" cy="23" fill="#ADD1B2" rx="11" ry="11" style="stroke:#181818;stroke-width:1.0;"/><path d="M355.4688,29.9219 Q353.7188,29.9219 352.5781,29.1875 Q351.4531,28.4375 350.8906,27.0938 Q350.3438,25.7344 350.3438,23.9375 Q350.3438,21.9063 351,20.4531 Q351.6563,19 352.9375,18.2188 Q354.2188,17.4375 356.0938,17.4375 Q356.9844,17.4375 357.6563,17.625 Q358.3281,17.7969 359.0156,18.1406 L358.2031,20.1563 Q357.5781,19.8438 357.0313,19.7188 Q356.5,19.5938 356.0156,19.5938 Q354.8438,19.5938 354.1406,20.125 Q353.4375,20.6563 353.1406,21.6094 Q352.8438,22.5625 352.8438,23.8281 Q352.8438,25.8438 353.5625,26.8125 Q354.2813,27.7656 355.875,27.7656 Q356.4688,27.7656 357.0938,27.6094 Q357.7188,27.4531 358.5469,27.0781 L358.5469,29.2969 Q357.8125,29.6094 357.0156,29.7656 Q356.2344,29.9219 355.4688,29.9219 Z " fill="#000000"/><text fill="#000000" font-family="sans-serif" font-size="14" lengthAdjust="spacing" textLength="34" x="370" y="28.432">Roda</text><line style="stroke:#181818;stroke-width:0.5;" x1="342" x2="406" y1="39" y2="39"/><line style="stroke:#181818;stroke-width:0.5;" x1="342" x2="406" y1="47" y2="47"/></g><!--MD5=[ec4e9ac521a71f7b069122f6baf1b57e]
class Pessoa--><g id="elem_Pessoa"><rect fill="#F1F1F1" height="48" id="Pessoa" rx="2.5" ry="2.5" style="stroke:#181818;stroke-width:0.5;" width="78" x="182" y="134"/><ellipse cx="197" cy="150" fill="#ADD1B2" rx="11" ry="11" style="stroke:#181818;stroke-width:1.0;"/><path d="M196.4688,156.9219 Q194.7188,156.9219 193.5781,156.1875 Q192.4531,155.4375 191.8906,154.0938 Q191.3438,152.7344 191.3438,150.9375 Q191.3438,148.9063 192,147.4531 Q192.6563,146 193.9375,145.2188 Q195.2188,144.4375 197.0938,144.4375 Q197.9844,144.4375 198.6563,144.625 Q199.3281,144.7969 200.0156,145.1406 L199.2031,147.1563 Q198.5781,146.8438 198.0313,146.7188 Q197.5,146.5938 197.0156,146.5938 Q195.8438,146.5938 195.1406,147.125 Q194.4375,147.6563 194.1406,148.6094 Q193.8438,149.5625 193.8438,150.8281 Q193.8438,152.8438 194.5625,153.8125 Q195.2813,154.7656 196.875,154.7656 Q197.4688,154.7656 198.0938,154.6094 Q198.7188,154.4531 199.5469,154.0781 L199.5469,156.2969 Q198.8125,156.6094 198.0156,156.7656 Q197.2344,156.9219 196.4688,156.9219 Z " fill="#000000"/><text fill="#000000" font-family="sans-serif" font-size="14" lengthAdjust="spacing" textLength="46" x="211" y="155.432">Pessoa</text><line style="stroke:#181818;stroke-width:0.5;" x1="183" x2="259" y1="166" y2="166"/><line style="stroke:#181818;stroke-width:0.5;" x1="183" x2="259" y1="174" y2="174"/></g><!--MD5=[5e62e6273918d7f8f37b6c277e222cf2]
link Motorista to Carro--><g id="link_Motorista_Carro"><path codeLine="8" d="M103.01,31 C129.63,31 162.13,31 186.27,31 " fill="none" id="Motorista-Carro" style="stroke:#181818;stroke-width:1.0;"/><polygon fill="#000000" points="130.25,18.853,121.2049,15.9141,121.2049,21.7919,130.25,18.853" style="stroke:#000000;stroke-width:1.0;"/><text fill="#000000" font-family="sans-serif" font-size="13" lengthAdjust="spacing" textLength="34" x="134.25" y="23.897">dirige</text></g><!--MD5=[cfcb8ec0a5b268c72566c4ab2e5cbfdd]
reverse link Carro to Roda--><g id="link_Carro_Roda"><path codeLine="9" d="M268.95,31 C292.37,31 319.96,31 340.99,31 " fill="none" id="Carro-backto-Roda" style="stroke:#181818;stroke-width:1.0;"/><polygon fill="#181818" points="255.72,31,261.72,35,267.72,31,261.72,27,255.72,31" style="stroke:#181818;stroke-width:1.0;"/><polygon fill="#000000" points="282.75,18.853,273.7049,15.9141,273.7049,21.7919,282.75,18.853" style="stroke:#000000;stroke-width:1.0;"/><text fill="#000000" font-family="sans-serif" font-size="13" lengthAdjust="spacing" textLength="36" x="286.75" y="23.897">Tem 4</text></g><!--MD5=[1dd0d3f80cc2219f383ec724bcf3410c]
link Carro to Pessoa--><g id="link_Carro_Pessoa"><path codeLine="10" d="M221,55.22 C221,77.67 221,111.5 221,133.91 " fill="none" id="Carro-Pessoa" style="stroke:#181818;stroke-width:1.0;"/><polygon fill="#000000" points="226,89.853,223.0611,98.8981,228.9389,98.8981,226,89.853" style="stroke:#000000;stroke-width:1.0;"/><text fill="#000000" font-family="sans-serif" font-size="13" lengthAdjust="spacing" textLength="32" x="235" y="99.897">owns</text></g><!--MD5=[cb52c8c73ae9f46f7ce963cb1dd15815]
@startuml Carro
class Carro

Motorista - Carro : dirige >
Carro *- Roda : Tem 4 >
Carro - - Pessoa : < owns

@enduml

PlantUML version 1.2022.6(Tue Jun 21 14:34:49 BRT 2022)
(GPL source distribution)
Java Runtime: OpenJDK Runtime Environment
JVM: OpenJDK 64-Bit Server VM
Default Encoding: UTF-8
Language: en
Country: US
--></g></svg>