<?xml version="1.0" encoding="UTF-8" standalone="no"?><svg xmlns="http://www.w3.org/2000/svg" xmlns:xlink="http://www.w3.org/1999/xlink" contentStyleType="text/css" height="346px" preserveAspectRatio="none" style="width:210px;height:346px;background:#FFFFFF;" version="1.1" viewBox="0 0 210 346" width="210px" zoomAndPan="magnify"><defs/><g><line style="stroke:#181818;stroke-width:0.5;stroke-dasharray:5.0,5.0;" x1="31" x2="31" y1="84.0679" y2="262.598"/><line style="stroke:#181818;stroke-width:0.5;stroke-dasharray:5.0,5.0;" x1="154" x2="154" y1="84.0679" y2="262.598"/><text fill="#000000" font-family="sans-serif" font-size="14" lengthAdjust="spacing" textLength="47" x="5" y="79.9659">Cliente</text><ellipse cx="31.5" cy="13.5" fill="#E2E2F0" rx="8" ry="8" style="stroke:#181818;stroke-width:0.5;"/><path d="M31.5,21.5 L31.5,48.5 M18.5,29.5 L44.5,29.5 M31.5,48.5 L18.5,63.5 M31.5,48.5 L44.5,63.5 " fill="none" style="stroke:#181818;stroke-width:0.5;"/><text fill="#000000" font-family="sans-serif" font-size="14" lengthAdjust="spacing" textLength="47" x="5" y="276.5639">Cliente</text><ellipse cx="31.5" cy="289.1659" fill="#E2E2F0" rx="8" ry="8" style="stroke:#181818;stroke-width:0.5;"/><path d="M31.5,297.1659 L31.5,324.1659 M18.5,305.1659 L44.5,305.1659 M31.5,324.1659 L18.5,339.1659 M31.5,324.1659 L44.5,339.1659 " fill="none" style="stroke:#181818;stroke-width:0.5;"/><text fill="#000000" font-family="sans-serif" font-size="14" lengthAdjust="spacing" textLength="103" x="100" y="79.9659">CaixaEletronico</text><ellipse cx="154.5" cy="13.5" fill="#E2E2F0" rx="8" ry="8" style="stroke:#181818;stroke-width:0.5;"/><path d="M154.5,21.5 L154.5,48.5 M141.5,29.5 L167.5,29.5 M154.5,48.5 L141.5,63.5 M154.5,48.5 L167.5,63.5 " fill="none" style="stroke:#181818;stroke-width:0.5;"/><text fill="#000000" font-family="sans-serif" font-size="14" lengthAdjust="spacing" textLength="103" x="100" y="276.5639">CaixaEletronico</text><ellipse cx="154.5" cy="289.1659" fill="#E2E2F0" rx="8" ry="8" style="stroke:#181818;stroke-width:0.5;"/><path d="M154.5,297.1659 L154.5,324.1659 M141.5,305.1659 L167.5,305.1659 M154.5,324.1659 L141.5,339.1659 M154.5,324.1659 L167.5,339.1659 " fill="none" style="stroke:#181818;stroke-width:0.5;"/><polygon fill="#181818" points="142.5,113.7739,152.5,117.7739,142.5,121.7739,146.5,117.7739" style="stroke:#181818;stroke-width:1.0;"/><line style="stroke:#181818;stroke-width:1.0;" x1="31.5" x2="148.5" y1="117.7739" y2="117.7739"/><text fill="#000000" font-family="sans-serif" font-size="13" lengthAdjust="spacing" textLength="92" x="38.5" y="111.9649">Fornecer senha</text><polygon fill="#181818" points="42.5,145.4799,32.5,149.4799,42.5,153.4799,38.5,149.4799" style="stroke:#181818;stroke-width:1.0;"/><line style="stroke:#181818;stroke-width:1.0;" x1="36.5" x2="153.5" y1="149.4799" y2="149.4799"/><text fill="#000000" font-family="sans-serif" font-size="13" lengthAdjust="spacing" textLength="99" x="48.5" y="143.6709">Requisitar senha</text><polygon fill="#181818" points="42.5,177.186,32.5,181.186,42.5,185.186,38.5,181.186" style="stroke:#181818;stroke-width:1.0;"/><line style="stroke:#181818;stroke-width:1.0;" x1="36.5" x2="153.5" y1="181.186" y2="181.186"/><text fill="#000000" font-family="sans-serif" font-size="13" lengthAdjust="spacing" textLength="80" x="48.5" y="175.377">Validar senha</text><polygon fill="#181818" points="142.5,208.892,152.5,212.892,142.5,216.892,146.5,212.892" style="stroke:#181818;stroke-width:1.0;"/><line style="stroke:#181818;stroke-width:1.0;" x1="31.5" x2="148.5" y1="212.892" y2="212.892"/><text fill="#000000" font-family="sans-serif" font-size="13" lengthAdjust="spacing" textLength="79" x="38.5" y="207.083">Inserir cartão</text><polygon fill="#181818" points="142.5,240.598,152.5,244.598,142.5,248.598,146.5,244.598" style="stroke:#181818;stroke-width:1.0;"/><line style="stroke:#181818;stroke-width:1.0;" x1="31.5" x2="148.5" y1="244.598" y2="244.598"/><text fill="#000000" font-family="sans-serif" font-size="13" lengthAdjust="spacing" textLength="85" x="38.5" y="238.789">Realizar saque</text><!--MD5=[e90922c6a5216995a42ccde959d2ea85]
@startuml Caso de uso
actor Cliente
actor CaixaEletronico

Cliente -> CaixaEletronico : Fornecer senha
CaixaEletronico -> Cliente : Requisitar senha
CaixaEletronico -> Cliente : Validar senha
Cliente -> CaixaEletronico : Inserir cartão
Cliente -> CaixaEletronico : Realizar saque
@enduml

PlantUML version 1.2022.6(Tue Jun 21 14:34:49 BRT 2022)
(GPL source distribution)
Java Runtime: OpenJDK Runtime Environment
JVM: OpenJDK 64-Bit Server VM
Default Encoding: UTF-8
Language: en
Country: US
--></g></svg>