<?xml version="1.0" encoding="UTF-8" standalone="no"?><svg xmlns="http://www.w3.org/2000/svg" xmlns:xlink="http://www.w3.org/1999/xlink" contentStyleType="text/css" height="233px" preserveAspectRatio="none" style="width:536px;height:233px;background:#FFFFFF;" version="1.1" viewBox="0 0 536 233" width="536px" zoomAndPan="magnify"><defs/><g><!--MD5=[20a748d5ee336a9a91751b0a3d4f0beb]
class Cliente--><g id="elem_Cliente"><rect codeLine="157" fill="#F1F1F1" height="219.6113" id="Cliente" rx="2.5" ry="2.5" style="stroke:#181818;stroke-width:0.5;" width="265" x="7" y="7"/><ellipse cx="111.75" cy="23" fill="#ADD1B2" rx="11" ry="11" style="stroke:#181818;stroke-width:1.0;"/><path d="M111.2188,29.9219 Q109.4688,29.9219 108.3281,29.1875 Q107.2031,28.4375 106.6406,27.0938 Q106.0938,25.7344 106.0938,23.9375 Q106.0938,21.9063 106.75,20.4531 Q107.4063,19 108.6875,18.2188 Q109.9688,17.4375 111.8438,17.4375 Q112.7344,17.4375 113.4063,17.625 Q114.0781,17.7969 114.7656,18.1406 L113.9531,20.1563 Q113.3281,19.8438 112.7813,19.7188 Q112.25,19.5938 111.7656,19.5938 Q110.5938,19.5938 109.8906,20.125 Q109.1875,20.6563 108.8906,21.6094 Q108.5938,22.5625 108.5938,23.8281 Q108.5938,25.8438 109.3125,26.8125 Q110.0313,27.7656 111.625,27.7656 Q112.2188,27.7656 112.8438,27.6094 Q113.4688,27.4531 114.2969,27.0781 L114.2969,29.2969 Q113.5625,29.6094 112.7656,29.7656 Q111.9844,29.9219 111.2188,29.9219 Z " fill="#000000"/><text fill="#000000" font-family="sans-serif" font-size="14" lengthAdjust="spacing" textLength="47" x="132.25" y="28.432">Cliente</text><line style="stroke:#181818;stroke-width:0.5;" x1="8" x2="271" y1="39" y2="39"/><rect fill="none" height="6" style="stroke:#C82930;stroke-width:1.0;" width="6" x="15" y="47"/><text fill="#000000" font-family="sans-serif" font-size="14" lengthAdjust="spacing" textLength="89" x="27" y="57.9659">Nome: String</text><rect fill="none" height="6" style="stroke:#C82930;stroke-width:1.0;" width="6" x="15" y="66.0679"/><text fill="#000000" font-family="sans-serif" font-size="14" lengthAdjust="spacing" textLength="73" x="27" y="77.0339">CPF: String</text><rect fill="none" height="6" style="stroke:#C82930;stroke-width:1.0;" width="6" x="15" y="85.1358"/><text fill="#000000" font-family="sans-serif" font-size="14" lengthAdjust="spacing" textLength="112" x="27" y="96.1018">Endereço: String</text><line style="stroke:#181818;stroke-width:0.5;" x1="8" x2="271" y1="104.2038" y2="104.2038"/><ellipse cx="18" cy="115.2038" fill="#84BE84" rx="3" ry="3" style="stroke:#038048;stroke-width:1.0;"/><text fill="#000000" font-family="sans-serif" font-size="14" lengthAdjust="spacing" textLength="119" x="27" y="123.1697">getNome(): String</text><ellipse cx="18" cy="134.2717" fill="#84BE84" rx="3" ry="3" style="stroke:#038048;stroke-width:1.0;"/><text fill="#000000" font-family="sans-serif" font-size="14" lengthAdjust="spacing" textLength="191" x="27" y="142.2376">setNome(nome: String): void</text><ellipse cx="18" cy="153.3396" fill="#84BE84" rx="3" ry="3" style="stroke:#038048;stroke-width:1.0;"/><text fill="#000000" font-family="sans-serif" font-size="14" lengthAdjust="spacing" textLength="103" x="27" y="161.3055">getCPF(): String</text><ellipse cx="18" cy="172.4075" fill="#84BE84" rx="3" ry="3" style="stroke:#038048;stroke-width:1.0;"/><text fill="#000000" font-family="sans-serif" font-size="14" lengthAdjust="spacing" textLength="158" x="27" y="180.3734">setCPF(cpf: String): void</text><ellipse cx="18" cy="191.4754" fill="#84BE84" rx="3" ry="3" style="stroke:#038048;stroke-width:1.0;"/><text fill="#000000" font-family="sans-serif" font-size="14" lengthAdjust="spacing" textLength="142" x="27" y="199.4414">getEndereço(): String</text><ellipse cx="18" cy="210.5433" fill="#84BE84" rx="3" ry="3" style="stroke:#038048;stroke-width:1.0;"/><text fill="#000000" font-family="sans-serif" font-size="14" lengthAdjust="spacing" textLength="239" x="27" y="218.5093">setEndereço(endereço: String): void</text></g><!--MD5=[667b9fa9208fcee6184b890b72f83c18]
class CaixaEletronico--><g id="elem_CaixaEletronico"><rect codeLine="168" fill="#F1F1F1" height="162.4075" id="CaixaEletronico" rx="2.5" ry="2.5" style="stroke:#181818;stroke-width:0.5;" width="222" x="307.5" y="36"/><ellipse cx="362.75" cy="52" fill="#ADD1B2" rx="11" ry="11" style="stroke:#181818;stroke-width:1.0;"/><path d="M362.2188,58.9219 Q360.4688,58.9219 359.3281,58.1875 Q358.2031,57.4375 357.6406,56.0938 Q357.0938,54.7344 357.0938,52.9375 Q357.0938,50.9063 357.75,49.4531 Q358.4063,48 359.6875,47.2188 Q360.9688,46.4375 362.8438,46.4375 Q363.7344,46.4375 364.4063,46.625 Q365.0781,46.7969 365.7656,47.1406 L364.9531,49.1563 Q364.3281,48.8438 363.7813,48.7188 Q363.25,48.5938 362.7656,48.5938 Q361.5938,48.5938 360.8906,49.125 Q360.1875,49.6563 359.8906,50.6094 Q359.5938,51.5625 359.5938,52.8281 Q359.5938,54.8438 360.3125,55.8125 Q361.0313,56.7656 362.625,56.7656 Q363.2188,56.7656 363.8438,56.6094 Q364.4688,56.4531 365.2969,56.0781 L365.2969,58.2969 Q364.5625,58.6094 363.7656,58.7656 Q362.9844,58.9219 362.2188,58.9219 Z " fill="#000000"/><text fill="#000000" font-family="sans-serif" font-size="14" lengthAdjust="spacing" textLength="103" x="383.25" y="57.432">CaixaEletronico</text><line style="stroke:#181818;stroke-width:0.5;" x1="308.5" x2="528.5" y1="68" y2="68"/><rect fill="none" height="6" style="stroke:#C82930;stroke-width:1.0;" width="6" x="315.5" y="76"/><text fill="#000000" font-family="sans-serif" font-size="14" lengthAdjust="spacing" textLength="91" x="327.5" y="86.9659">Senha: String</text><rect fill="none" height="6" style="stroke:#C82930;stroke-width:1.0;" width="6" x="315.5" y="95.0679"/><text fill="#000000" font-family="sans-serif" font-size="14" lengthAdjust="spacing" textLength="93" x="327.5" y="106.0339">Saldo: Double</text><line style="stroke:#181818;stroke-width:0.5;" x1="308.5" x2="528.5" y1="114.1358" y2="114.1358"/><ellipse cx="318.5" cy="125.1358" fill="#84BE84" rx="3" ry="3" style="stroke:#038048;stroke-width:1.0;"/><text fill="#000000" font-family="sans-serif" font-size="14" lengthAdjust="spacing" textLength="121" x="327.5" y="133.1018">getSenha(): String</text><ellipse cx="318.5" cy="144.2038" fill="#84BE84" rx="3" ry="3" style="stroke:#038048;stroke-width:1.0;"/><text fill="#000000" font-family="sans-serif" font-size="14" lengthAdjust="spacing" textLength="196" x="327.5" y="152.1697">setSenha(senha: String): void</text><ellipse cx="318.5" cy="163.2717" fill="#84BE84" rx="3" ry="3" style="stroke:#038048;stroke-width:1.0;"/><text fill="#000000" font-family="sans-serif" font-size="14" lengthAdjust="spacing" textLength="123" x="327.5" y="171.2376">getSaldo(): Double</text><ellipse cx="318.5" cy="182.3396" fill="#84BE84" rx="3" ry="3" style="stroke:#038048;stroke-width:1.0;"/><text fill="#000000" font-family="sans-serif" font-size="14" lengthAdjust="spacing" textLength="193" x="327.5" y="190.3055">setSaldo(saldo: Double): void</text></g><!--MD5=[f14ed891552815f8deebd8299eb5b16b]
@startuml Classes
class Cliente {
    -Nome: String
    -CPF: String
    -Endereço: String
    +getNome(): String
    +setNome(nome: String): void
    +getCPF(): String
    +setCPF(cpf: String): void
    +getEndereço(): String
    +setEndereço(endereço: String): void
}
class CaixaEletronico {
    -Senha: String
    -Saldo: Double
    +getSenha(): String
    +setSenha(senha: String): void
    +getSaldo(): Double
    +setSaldo(saldo: Double): void
}
@enduml

PlantUML version 1.2022.6(Tue Jun 21 14:34:49 BRT 2022)
(GPL source distribution)
Java Runtime: OpenJDK Runtime Environment
JVM: OpenJDK 64-Bit Server VM
Default Encoding: UTF-8
Language: en
Country: US
--></g></svg>