<?xml version="1.0" encoding="UTF-8" standalone="no"?><svg xmlns="http://www.w3.org/2000/svg" xmlns:xlink="http://www.w3.org/1999/xlink" contentStyleType="text/css" height="362px" preserveAspectRatio="none" style="width:137px;height:362px;background:#FFFFFF;" version="1.1" viewBox="0 0 137 362" width="137px" zoomAndPan="magnify"><defs/><g><ellipse cx="68.5" cy="16" fill="#222222" rx="10" ry="10" style="stroke:none;stroke-width:1.0;"/><g id="Inicial"><rect fill="#F1F1F1" height="50" rx="12.5" ry="12.5" style="stroke:#181818;stroke-width:0.5;" width="61" x="38" y="86"/><line style="stroke:#181818;stroke-width:0.5;" x1="38" x2="99" y1="115.0679" y2="115.0679"/><text fill="#000000" font-family="sans-serif" font-size="14" lengthAdjust="spacing" textLength="41" x="48" y="105.9659">Inicial</text></g><g id="Cliente"><rect fill="#F1F1F1" height="50" rx="12.5" ry="12.5" style="stroke:#181818;stroke-width:0.5;" width="67" x="35" y="196"/><line style="stroke:#181818;stroke-width:0.5;" x1="35" x2="102" y1="225.0679" y2="225.0679"/><text fill="#000000" font-family="sans-serif" font-size="14" lengthAdjust="spacing" textLength="47" x="45" y="215.9659">Cliente</text></g><g id="CaixaEletronico"><rect fill="#F1F1F1" height="50" rx="12.5" ry="12.5" style="stroke:#181818;stroke-width:0.5;" width="123" x="7" y="306"/><line style="stroke:#181818;stroke-width:0.5;" x1="7" x2="130" y1="335.0679" y2="335.0679"/><text fill="#000000" font-family="sans-serif" font-size="14" lengthAdjust="spacing" textLength="103" x="17" y="325.9659">CaixaEletronico</text></g><!--MD5=[799679ad9d273e0a78da94a10d804476]
link *start to Inicial--><g id="link_*start_Inicial"><path d="M68.5,26.26 C68.5,38.86 68.5,61.98 68.5,80.74 " fill="none" id="*start-to-Inicial" style="stroke:#181818;stroke-width:1.0;"/><polygon fill="#181818" points="68.5,85.91,72.5,76.91,68.5,80.91,64.5,76.91,68.5,85.91" style="stroke:#181818;stroke-width:1.0;"/></g><!--MD5=[965906e1c16715b739cb2a50cbe66aaf]
link Inicial to Cliente--><g id="link_Inicial_Cliente"><path d="M68.5,136.24 C68.5,152.36 68.5,173.62 68.5,190.69 " fill="none" id="Inicial-to-Cliente" style="stroke:#181818;stroke-width:1.0;"/><polygon fill="#181818" points="68.5,195.84,72.5,186.84,68.5,190.84,64.5,186.84,68.5,195.84" style="stroke:#181818;stroke-width:1.0;"/></g><!--MD5=[e596c0fc28ba051374bb7ecbe786601d]
link Cliente to CaixaEletronico--><g id="link_Cliente_CaixaEletronico"><path d="M57.66,246.24 C55.35,262.36 55.14,283.62 57.02,300.69 " fill="none" id="Cliente-to-CaixaEletronico" style="stroke:#181818;stroke-width:1.0;"/><polygon fill="#181818" points="57.67,305.84,60.5061,296.4083,57.041,300.8797,52.5696,297.4147,57.67,305.84" style="stroke:#181818;stroke-width:1.0;"/></g><!--MD5=[18ad5c5cf0bb8343209d1aa3679aa5c7]
link CaixaEletronico to Cliente--><g id="link_CaixaEletronico_Cliente"><path d="M79.97,305.84 C82.42,289.74 82.65,268.48 80.67,251.39 " fill="none" id="CaixaEletronico-to-Cliente" style="stroke:#181818;stroke-width:1.0;"/><polygon fill="#181818" points="79.98,246.24,77.1974,255.6876,80.6371,251.1966,85.128,254.6363,79.98,246.24" style="stroke:#181818;stroke-width:1.0;"/></g><!--MD5=[f84661fc6bc22c03a15219f6846fde7f]
@startuml Estados
[*] - -> Inicial
Inicial - -> Cliente
Cliente - -> CaixaEletronico
CaixaEletronico - -> Cliente
@enduml

PlantUML version 1.2022.6(Tue Jun 21 14:34:49 BRT 2022)
(GPL source distribution)
Java Runtime: OpenJDK Runtime Environment
JVM: OpenJDK 64-Bit Server VM
Default Encoding: UTF-8
Language: en
Country: US
--></g></svg>